<svg viewBox="0 0 500 500" fill="none" xmlns="http://www.w3.org/2000/svg"><path d="M343.719 342.511c.9-.912.841-1.847.082-2.806.152-2.034.444-4.067.432-6.101-.012-2.689-.269-5.377-.409-8.066-.117-2.268-.397-2.56-2.617-2.642-.561-.023-1.122 0-1.671.024-1.426.058-1.963.853-1.811 2.221-.222.748-.432 1.484-.654 2.232-3.26.667-5.083 3.203-7.011 5.19.724 1.356 1.647 2.467 1.905 3.729.432 2.081.584 4.255.619 6.382.233 13.069.397 26.149.584 39.218.012 1.028.14 2.045.175 3.074.105 3.355.211 6.71.269 10.064.012.433-.304.854-.397 1.298-.211.97-.538 1.94-.503 2.91.047 1.66.339 3.32.526 4.98-.012 1.753-.093 3.519.023 5.272.047.736.304 1.905 1.531.83l1.274.035c.128.292.257.584.385.888.246-.233.479-.479.725-.713 2.325-.467 3.049-2.174 3.166-4.255.222-4.044.374-8.089.561-12.133.608-.339.643-.713.058-1.122.164-1.321.316-2.63.479-3.951.772-.503.748-1.064.106-1.66.175-.807.455-1.613.49-2.431.222-4.618.374-9.223.561-13.84.935-1.859.865-3.729.07-5.599.176-4.711.316-9.434.526-14.144.117-2.981.339-5.927.526-8.884zm-102.132-70.053c-.082-.62-.316-1.309-.152-1.871.701-2.443.128-4.605-1.285-6.616-1.18-1.671-1.519-3.226-.082-5.049 1.028-1.31.806-3.986-.479-4.91-2.512-1.8-5.398-2.478-8.506-1.788-.374-.024-.748-.047-1.122-.082-.923-.327-1.916-1.04-2.769-.9-1.987.304-3.996.83-5.854 1.601-1.835.76-3.143 2.21-3.926 4.15-.689 1.718-1.636 3.343-2.454 5.015-2.22 4.605-4.007 9.374-5.164 14.366-.713 3.074-1.356 6.16-3.015 8.918-.374.632-.701 1.333-.888 2.046-1.238 4.641-3.505 8.767-5.947 12.87-1.519 2.56-3.517 4.559-5.702 6.441-3.283 2.852-6.695 5.552-9.943 8.439-1.998 1.789-3.704 3.904-5.69 5.705-1.987 1.8-3.272 3.986-4.254 6.417-1.063.444-1.402 1.356-1.53 2.396l-.035 1.146c-.187.362-.362.725-.549 1.099 0 3.249-.141 6.499.035 9.737.105 1.999.666 3.986 1.028 5.973.163.573.327 1.145.491 1.707.245 2.536 1.484 4.652 2.886 6.697.537.772 1.086 1.555 1.624 2.327.175.175.35.339.526.514.444 2.221 2.22 2.443 3.984 2.665 1.192 0 2.465.257 3.575-.058 4.639-1.298 9.114-2.993 12.584-6.57.958-.993 1.94-1.975 2.91-2.957 1.624-.094.946-1.917 1.998-2.63.876-.596 1.343-1.87 1.834-2.923.502-1.052.806-2.197 1.192-3.308l.42-.49c.047-.386.082-.772.129-1.146l.023.012c.152-.187.316-.374.468-.561.082-.152.128-.316.128-.491.561-.246 1.321-.409.374-1.146.853-2.092 2.103-4.126 2.454-6.312.514-3.18 2.851-5.026 4.568-7.294 1.987-2.619 4.347-4.839 4.99-8.358.479-2.642 1.355-5.389 2.769-7.621 1.636-2.572 2.231-5.354 3.061-8.136 1.239-4.161 3.318-7.54 7.653-9.129 2.232-.818 3.868-2.256 3.774-4.933-.035-1.251.584-2.256 1.601-2.782 2.056-1.052 2.056-2.548 1.531-4.465-.269-1.006-.456-2.443.046-3.18 1.122-1.508.877-2.969.69-4.535zm51.259-59.639c-.327-.152-.654-.421-.993-.444-3.435-.211-6.871-.374-10.306-.55-.666-.83-1.519-.584-2.36-.409-.689-.012-1.379-.035-2.068-.047-3.026-.935-6.146-.643-9.242-.607-.479.011-.958.362-1.449.561h-9.581c-.211-.164-.421-.456-.655-.48-2.372-.245-4.755-.491-7.139-.643-1.6-.105-3.75.982-3.937 2.034-.246 1.345-.281 2.724-.409 4.092l-.07 6.008c.479 1.625.911 3.261 1.46 4.863.187.526.655.958.993 1.437.269.737.55 1.473.818 2.21.012 1.063.596 1.601 1.601 1.741.911 1.298 1.367 2.712 1.098 4.314-2.115 2.033-3.248 4.71-4.627 7.212-.28.502-.233 1.309-.093 1.917a240.77 240.77 0 0 0 2.08 8.065c.198.702.561 1.391.958 2.011 2.442 3.869 6.391 5.272 10.551 6.102 4.007.795 8.12 1.075 12.093 1.952 5.293 1.157 10.154.152 14.816-2.268 1.542-.806 3.084-1.788 4.276-3.027 1.017-1.064 2.325-2.373 1.881-4.103-.631-2.455-1.601-4.828-2.267-7.271-.841-3.063-2.301-5.997-1.986-9.305l.386-4.512c2.395-3.81 3.014-8.159 3.54-12.484.093-.736 1.554-1.192.444-2.092.023-.187.035-.386.058-.573.608-.152 1.403-.199.596-1.11.152-.725.292-1.461.444-2.186.105-.982.444-2.022-.911-2.408z" fill="#FBDCBE"/><path d="M248.459 228.61c-1.285-1.461-1.601-3.051-.666-4.816.21-.397.596-.806.596-1.204 0-.42-.374-.841-.596-1.25-.21-1.31-.409-2.619-.619-3.928.899-2.56-.701-4.746-1.157-7.224-1.869-.128-3.961-.479-5.433 1.087-1.25 1.321-3.587 1.941-3.272 4.442 0 .199.012.398.012.596-1.472 2.256-.958 4.793-1.11 7.259-.129 1.976.584 3.507 2.138 4.489 1.215.783 1.449 1.835 1.542 3.051.082 1.11.012 2.232.164 3.331.234 1.765 1.274 2.291 2.933 1.637.678-.269 1.379-.491 2.056-.783 3.213-1.38 4.3-3.098 3.891-6.055a21.92 21.92 0 0 0-.479-.632zm53.303-10.719c.187-1.765-.841-3.039-1.741-4.36-.327-.421-.654-.83-.981-1.251-.432-1.683-1.636-1.402-2.839-1.122-.596-1.204-1.391-1.122-2.279-.351-.385.129-.771.269-1.156.398-2.536.736-3.155 1.835-2.478 4.208.608 2.116.713 4.231-.584 6.148-1.098 1.602-1.005 3.063.082 4.641.993 1.438.958 2.759-.175 4.325-1.099 1.52-2.302 3.238-1.741 5.389-.888.736-.608 1.309.245 1.812.351.876 1.157 1.11 1.846.818 1.858-.783 3.716-1.613 5.433-2.654 1.368-.83 1.671-2.513 1.73-3.904.093-2.057.946-3.425 2.453-4.699 1.788-1.508 2.688-3.495 2.185-5.926 1.274-1.765 1.274-2.151 0-3.472z" fill="#E5C892"/><path d="m167.991 132.982-.491-8.954c0-.094-.023-.187-.023-.281-.094-1.928.981-3.682.093-5.868-.701-1.73.129-4.032.14-6.09.035-4.395-.023-8.79-.011-13.185.011-3.145.011-6.3.175-9.433.035-.76.561-1.602 1.087-2.198 2.36-2.642 4.732-5.295 7.244-7.797 5.223-5.201 10.492-10.368 15.844-15.418 4.755-4.488 9.628-8.837 14.5-13.209 1.893-1.694 4.206-2.279 6.73-2.314 3.167-.058 6.333-.199 9.499-.386 7.724-.444 15.447-1.169 23.182-1.32 7.268-.14 14.547.315 21.826.479 1.285.023 2.244.479 3.213 1.379 3.143 2.91 6.485 5.623 9.617 8.545 2.453 2.29 4.884 4.652 6.998 7.235 4.674 5.705 9.126 11.608 14.349 16.844 2.009 2.011 2.488 4.267 2.266 7.12-.444 5.481-.444 11.01-.514 16.516-.07 5.506.082 11.023.012 16.529-.058 4.57-.199 9.152-.502 13.711-.176 2.595-.456 5.26-1.204 7.727-.514 1.695-1.717 3.308-2.968 4.617-4.849 5.061-9.85 9.959-14.757 14.95-1.893 1.929-3.657 3.998-5.55 5.927-.97.982-2.103 1.812-3.166 2.712-.281.233-.701.42-.818.713-1.262 3.179-4.148 4.968-6.263 7.422a114.417 114.417 0 0 0-3.716 4.536c-1.519 1.975-3.295 2.899-5.959 2.899-5.772-.012-11.555.432-17.327.689-.281.012-.666.211-.807.094-1.741-1.473-3.832.269-5.631-.62-.152-.081-.444-.152-.526-.07-2.103 1.941-4.464.573-6.649.386-5.012-.433-10.001-1.181-14.979-1.87-.783-.106-1.869-.398-2.208-.959-1.472-2.396-4.066-3.238-6.088-4.851-2.044-1.625-3.914-3.46-5.807-5.272-1.963-1.87-3.762-3.927-5.807-5.692-5.246-4.536-9.791-9.749-14.453-14.846-2.337-2.548-4.884-4.886-7.245-7.399-.584-.619-.829-1.555-1.25-2.338-.163-.304-.315-.795-.549-.83-1.718-.327-1.531-1.636-1.542-2.84-.024-2.338 0-4.664 0-7.002-.012.012.011.012.035.012zm56.926-82.269c-.772-1.239-1.613-1.31-2.548-.199.842.07 1.695.129 2.548.2zm10.551-.771c-.036-.234-.059-.468-.094-.713-.584.117-1.18.233-1.764.35.023.164.046.34.07.503l1.788-.14zm-1.73 134.449c.234-.024.456-.047.69-.082-.094-.444-.176-.888-.269-1.333l-.491.071.07 1.344z" fill="#FA551E"/><g fill="#1E1919"><path d="M255.61 426.601c2.103-2.104 4.604-3.156 7.326-3.764 1.04-.233 2.115-.362 3.166-.537.737-.117 1.379-.433 1.648-1.146.432-1.169 1.028-2.373 1.098-3.577.129-2.466-.046-4.944-.128-7.411-.07-1.999-.187-4.009-.269-6.008-.199-4.29-.409-8.58-.561-12.87-.082-2.513 0-5.038-.105-7.551-.093-2.244-.327-4.477-.491-6.639-.268-.106-.362-.187-.432-.164-2.115.561-4.125.128-6.193-.409-3.26-.854-6.625-1.029-9.978-1.193-3.167-.163-6.321-.502-9.476-.748-1.332-.105-2.664-.14-4.23-.222-.046 1.263-.082 2.315-.14 3.367-.21 3.997-.386 8.007-.654 12.005-.316 4.722-.76 9.444-1.04 14.167-.374 6.195-.479 12.426-1.04 18.597-.538 5.88-.409 11.76-.561 17.639-.163 6.161-.456 12.321-.654 18.481-.105 3.074-.105 6.16-.175 9.246-.012.748-.059 1.496-.199 2.233-.257 1.379-1.087 2.022-2.874 2.151.186-9.679.233-19.334.584-28.195-.105-2.677-.257-4.582-.257-6.476 0-3.366.035-6.721.163-10.087.082-2.233.409-4.454.538-6.698.21-3.589.268-7.189.537-10.766.374-4.98.865-9.947 1.309-14.915.21-2.373.491-4.734.631-7.107.187-3.016.327-6.032.409-9.06.105-3.904.175-7.808.187-11.712.023-4.746-.035-9.492-.035-14.226.011-5.085-.012-10.169.117-15.243.07-3.121.479-6.23.549-9.363.035-1.543.163-3.086-.012-4.664-.222-2.022.023-4.103.164-6.148.315-4.84.701-9.679 1.016-14.53.175-2.653.269-5.307.421-7.96.046-.83.175-1.66.257-2.397.935-.724 1.729-.713 2.699-.011.152 1.414.479 2.934.467 4.442-.047 4.523-.198 9.047-.362 13.571-.129 3.588-.351 7.177-.502 10.766-.094 2.092-.117 4.196-.222 6.288-.024.503-.246.994-.398 1.567.094.374.222.818.316 1.18-.841 6.733-.841 13.42-.748 20.094 1.297 0 2.5.105 3.692-.012 5.726-.572 11.463-.467 17.188-.385 1.016.011 2.045.187 3.061.327.432.058.853.234 1.472.409-.864.748-1.729.982-2.582 1.029-2.045.093-4.101.14-6.146.105-4.008-.058-8.015-.187-12.023-.269-1.425-.023-2.851 0-4.276 0-.83.935-.468 2.034-.526 3.004-.152 2.315-.105 4.653-.152 6.979-.059 3.074-.14 6.16-.199 9.234-.011.865 0 1.73 0 2.607 1.496-.211 2.804-.479 4.125-.55 1.671-.081 3.342 0 5.024.024 2.886.035 5.784.128 8.67.082 3.926-.059 7.828.058 11.684.888.129.023.269-.023.596-.047 0-.76.023-1.519 0-2.267-.175-4.29-.397-8.569-.561-12.859-.14-3.775-.549-7.527-1.063-11.268-.094-.69.093-1.414.397-2.139-.187-.316-.374-.631-.584-.994.117-.385.234-.783.269-.876-1.099-2.969-1.099-5.833-1.286-8.685-.187-2.794-.374-5.588-.677-8.37-.257-2.408-.526-4.828-1.052-7.177-.935-4.138-2.103-8.229-3.12-12.356-.467-1.905-.806-3.834-1.191-5.762-.631-3.098-1.227-6.207-1.905-9.305a590.752 590.752 0 0 0-2.687-11.724c-.947-3.951-1.975-7.879-2.956-11.818-.258-1.029-.48-2.069-.713-3.109.736-.62 1.519-.503 2.313-.421.842.596 1.332 1.426 1.636 2.384.643 2.093 1.332 4.162 1.893 6.278 1.192 4.5 2.43 8.989 3.423 13.524 1.367 6.289 2.478 12.636 3.81 18.948.782 3.694 1.717 7.364 2.664 11.023.771 3.004 1.343 6.055 1.332 9.129-.012 2.069.49 4.033.549 6.067.058 2.046.397 4.091.596 6.137.432 4.266.993 8.533 1.273 12.811.374 5.728.514 11.467.806 17.207.152 2.934.421 5.868.608 8.802.164 2.513.269 5.038.444 7.551.175 2.56.479 5.12.596 7.68.175 3.682.234 7.376.339 11.058.093 3.226.198 6.441.292 9.667.058 1.753-.164 3.471-.865 5.073-.42.97-.97 1.952-1.706 2.688-2.29 2.28-4.93 3.94-8.237 4.419-2.01.315-3.973.818-6.111 1.262zm71.192-85.108c-.269-2.677-.561-5.366-.818-8.054-.082-.877-.117-1.754-.199-2.619-.233-2.723-.444-5.458-.724-8.182-.152-1.485-.561-2.946-.619-4.43-.082-2.139-.725-4.15-1.543-6.032-1.308-2.992-1.869-6.148-2.57-9.281-.374-1.672-.351-3.425-.456-5.155-.198-3.168-.315-6.336-.561-9.503-.163-2.081-.537-4.138-.245-6.254.093-.666-.199-1.485-.561-2.104-1.016-1.73-2.15-3.39-3.26-5.062-.876-1.332-1.332-2.77-1.168-4.488 1.379.689 2.15 1.928 3.003 3.016 1.764 2.244 3.166 4.722 4.253 7.375.222.55.432 1.169.432 1.754 0 1.893.456 3.694.935 5.494.864 3.273 1.11 6.639 1.051 9.994-.07 3.647.643 7.142 1.496 10.637.117.468.409.9.666 1.426 2.138-1.04 4.019-2.373 6.368-2.443-1.309 1.321-3.073 1.835-4.569 2.712l-1.075 1.637c.62 2.524 1.227 5.014 1.835 7.563 3.832-2.034 7.466-3.975 11.1-5.904.572-1.624.047-3.156-.409-4.652-1.204-3.974-2.512-7.913-3.809-11.853a90.844 90.844 0 0 0-1.507-4.219c-.257-.678-.62-1.321-1.017-2.14-.829.456-1.542.772-2.185 1.216-1.495 1.04-2.933 2.163-4.428 3.203-.456.316-1.005.491-1.601.596.771-1.613 2.173-2.56 3.505-3.495 1.321-.923 2.828-1.578 4.37-2.431-.117-.445-.222-.935-.362-1.415-.865-2.852-1.671-5.727-2.641-8.545-.993-2.863-2.161-5.669-3.271-8.474-.105-.281-.397-.515-.643-.713-.479-.374-.981-.713-1.472-1.076-1.461-1.04-2.711-2.209-3.47-3.927-.374-.842-1.145-1.59-1.893-2.186-3.143-2.56-6.356-5.038-9.535-7.551-1.892-1.497-4.101-2.397-6.297-3.32-2.664-1.122-5.317-2.268-7.981-3.413-.374-.164-.701-.409-.993-.889.421.047.876.012 1.262.152 4.884 1.835 9.78 3.671 14.64 5.553 2.478.958 4.429 2.747 6.509 4.325 2.418 1.823 4.79 3.717 7.185 5.575a8.127 8.127 0 0 1 2.489 3.156c.444 1.006 1.063 1.882 2.01 2.455 2.103 1.263 3.365 3.18 4.241 5.401 1.028 2.606 2.092 5.19 3.073 7.808.69 1.835 1.215 3.729 1.893 5.564 1.414 3.799 2.991 7.54 4.288 11.385a65.776 65.776 0 0 1 3.108 13.922c.164 1.531.316 3.063.362 4.594.024 1.122-.607 1.847-1.635 2.385-.666.35-1.18 1.017-1.706 1.589-.783.865-1.519 1.765-2.279 2.654-1.063 1.239-2.477 1.777-4.019 2.08-.199.036-.432-.058-.888-.116.397-.632.643-1.181 1.028-1.602 1.484-1.613 3.003-3.191 4.51-4.781l1.075-1.11c-.385-1.403-.748-2.735-1.157-4.22-.49.245-.841.433-1.215.596-2.056.982-4.124 1.952-6.157 2.969-1.169.585-2.29 1.251-3.412 1.917-.596.363-.643.994-.573 1.625.187 1.718.386 3.437.573 5.155.21 1.812.409 3.612.642 5.424.269 2.127.585 4.243.842 6.37.175 1.403-.14 2.186-1.157 2.572-.759.304-1.647.468-2.664-.21zm1.589 80.69c1.274-1.8 1.659-3.647 1.554-5.599-.047-.935-.094-1.882-.316-2.782-.666-2.7-.14-5.272.62-7.855.28-.971.362-2.011.455-3.016.117-1.251.141-2.513.199-3.706.643-1.063 1.554-1.531 2.793-1.753.163 1.94.689 3.787.105 5.611-1.052 3.261-1.391 6.558-.701 9.936.537 2.63-.035 5.096-1.25 7.446-1.379 2.677-5.107 4.851-8.553 3.623-1.309-.467-2.711-.666-4.055-1.017-.853-.222-1.729-.409-2.547-.759-2.302-.994-4.58-2.081-6.87-3.098-.76-.339-1.122-.959-1.332-1.695a22.888 22.888 0 0 1-.83-8.019c.199-2.735.035-5.494.035-8.241a2.27 2.27 0 0 0-.058-.561c-1.379-4.301-1.297-8.813-1.952-13.22-.233-1.602-.081-3.25-.116-4.875-.106-4.336-.316-8.673-.293-13.021.012-2.28.468-4.547.62-6.827.187-2.782.362-5.576.374-8.358.011-2.747-.152-5.505-.304-8.252a46.68 46.68 0 0 0-.491-4.594 70.876 70.876 0 0 1-.806-11.678c.035-2.548-.129-5.12-.806-7.633-.374-1.379-.491-2.828-.643-4.255-.199-1.846-.421-3.717-.421-5.564.012-1.788.176-3.577.514-5.365.351-1.905.339-3.892.293-5.845-.082-3.214-.363-6.429-.456-9.643-.059-2.093.07-4.197.105-6.301.012-.83-.058-1.671-.023-2.501.023-.491.187-.97.304-1.52h1.659c.292 2.361.584 4.711.853 7.049.338 2.969.747 5.926.958 8.907.175 2.513.245 5.038.105 7.551-.105 2.069-.666 4.103-.865 6.172-.304 3.203-.023 6.394.655 9.55.958 4.442 1.261 8.942 1.215 13.49a31.303 31.303 0 0 0 .397 5.435c.362 2.268.467 4.535.643 6.815.198 2.571.105 5.12.21 7.68.128 3.331-.245 6.604-.596 9.9a75.613 75.613 0 0 0-.199 13.408c.199 2.653.164 5.319.374 7.972.152 1.999.55 3.974.807 5.961.14 1.099.163 2.221.292 3.332.105.923.128 1.894.455 2.735.678 1.742.865 3.53.842 5.366-.035 2.291-.106 4.57-.141 6.861-.035 2.174.339 4.29 1.274 6.265.222.468.631.971 1.075 1.181 2.313 1.087 4.65 2.139 7.022 3.098.982.397 2.057.573 3.085.853.935.257 1.869.549 2.804.818.654.187 1.309.363 1.928.538zM225.16 301.796c1.554-.269 1.764-.234 3.073.573.035 1.683.117 3.495.093 5.307a168.36 168.36 0 0 1-.198 6.849c-.164 3.063-.339 6.137-.608 9.188-.304 3.484-.736 6.955-1.028 10.439-.082.911-.339 1.835 0 2.793.175.491-.012 1.111-.047 1.672-.164 3.062-.327 6.125-.514 9.188-.035.654-.152 1.297-.199 1.952-.152 2.466-.304 4.921-.397 7.387-.105 2.513-.152 5.038-.222 7.551-.07 2.56-.093 5.132-.21 7.692-.164 3.682-.433 7.364-.573 11.046-.117 2.888-.128 5.775-.14 8.674-.012 2.092.035 4.196.07 6.288.047 2.841.152 5.681.152 8.51 0 2.607-.047 5.225-.164 7.832-.175 3.624-.479 7.247-.642 10.883-.105 2.186.07 4.383-.07 6.569-.199 2.981-.585 5.95-.853 8.919-.082.97-.024 1.964-.047 2.934-.07 3.132-.094 6.254-.257 9.386-.175 3.215-.479 6.418-.748 9.632-.128 1.625-.234 3.261-.444 4.886-.14 1.099-.339 2.221-.713 3.262-.525 1.484-1.869 1.905-3.505 2.291.164-1.216.327-2.21.444-3.203.187-1.719.374-3.437.526-5.155.21-2.373.444-4.734.561-7.107.117-2.513.058-5.027.152-7.54.175-4.465.105-8.942.782-13.396.421-2.758.643-5.564.865-8.346.152-1.893.023-3.81.21-5.692.491-5.155.456-10.31.526-15.477.035-2.794.105-5.599.094-8.393 0-1.332-.199-2.653-.234-3.986-.164-5.973.058-11.934.573-17.884.315-3.659.222-7.341.362-11.011.21-5.553.444-11.093.701-16.646.093-1.952.362-3.892.432-5.844.082-2.046-.047-4.103.035-6.161.117-3.109.351-6.218.514-9.339.129-2.35.012-4.746.386-7.049.374-2.279.128-4.535.269-6.791.163-2.689.373-5.366.537-8.054.07-1.064.058-2.139.14-3.215.035-.502.211-.982.316-1.414zm-28.65-39.743c-1.016 1.04-1.916 1.8-2.617 2.711-1.449 1.871-2.816 3.823-4.195 5.752-1.986 2.77-3.961 5.54-5.923 8.322-3.19 4.512-7.011 8.463-10.82 12.449-2.255 2.361-4.253 4.956-6.333 7.47-.339.409-.502.958-.818 1.589 2.36.398 3.984 1.824 5.772 2.981 2.582 1.672 5.141 3.367 8.156 4.255 1.156.339 2.243.97 2.839 2.127.187.374.257.807.374 1.216-.094.082-.187.152-.281.234-.712-.386-1.425-.795-2.149-1.169-1.403-.725-2.781-1.496-4.23-2.127-2.676-1.158-5.036-2.818-7.373-4.524-.759-.55-1.484-1.122-2.267-1.648-.374-.246-.806-.398-1.285-.62-2.15 2.583-4.241 5.073-6.286 7.598-.269.327-.292.865-.467 1.45.525.455 1.016.935 1.554 1.356 1.776 1.402 3.879 2.15 5.924 3.062 2.839 1.263 5.678 2.595 8.167 4.547.829.643 1.706 1.228 2.5 1.789-.339 1.052-.339 1.052-2.839 2.139.362.631.713 1.25 1.133 1.975-.818 1.169-2.138 1.064-3.213 1.45-.806-.585-1.414-1.087-1.729-1.952-.187-.526-.771-.9-1.122-1.368-1.484-1.94-3.26-3.565-5.269-4.945-.772-.526-1.566-1.04-2.232-1.683-.561-.538-.958-1.227-1.659-2.162-1.484-.9-3.365-1.941-4.814-3.589.187-1.11.502-2.046 1.238-2.922 1.963-2.35 3.751-4.851 5.702-7.224a201.92 201.92 0 0 1 6.029-6.967c3.436-3.811 6.988-7.504 10.353-11.362 1.857-2.139 3.505-4.477 5.117-6.815 2.174-3.132 4.16-6.405 6.357-9.526 1.098-1.555 2.442-2.934 3.739-4.349 1.951-2.127 3.832-4.336 5.959-6.277 1.998-1.823 4.346-3.249 7.022-3.939.818-.21 1.694-.187 2.559-.164-4.709 2.42-8.518 5.833-11.825 9.983.666.467 1.25.888 1.835 1.297l.21-.245c2.197 2.525 4.3 5.108 5.69 8.206a165.998 165.998 0 0 1 2.244 5.12c.303.724.49 1.508.642 2.291.257 1.426.222 1.437-.748 2.665-1.635.245-2.816-.234-3.423-1.695-.666-1.578-1.122-3.25-1.671-4.886-.981-2.922-1.951-5.845-3.599-8.475-.397-.631-.689-1.332-1.04-1.987-.222-.362-.479-.736-.888-1.414zm4.44 97.756c.596-.093.935-.152 1.484-.234.397 4.255.795 8.405 1.203 12.695 2.7-.842 5.258-.421 7.794-.526 2.5-.105 5.036-.187 7.56.853a2.85 2.85 0 0 1-1.94.69c-1.25-.024-2.512-.14-3.762-.175-1.917-.047-3.821-.047-5.737-.106-1.204-.035-2.396-.152-3.774-.245.058.69.046 1.391.198 2.045.491 2.186.993 4.372 1.589 6.535 1.064 3.916 2.022 7.843 1.706 11.97-.175 2.372-.257 4.757-.304 7.13-.011.865.187 1.742.304 2.607.514 3.705.865 7.422.842 11.163 0 .421.035.841.011 1.262-.14 2.549 1.18 4.08 3.412 5.015 1.145.479 2.243 1.052 3.447 1.625-.783 1.601-2.442 1.625-3.611 2.419-.105 2.303-.186 4.583-.327 6.862-.14 2.279.444 4.465.935 6.745-1.659.339-3.108.853-4.031-.211-2.01-4.617-.467-8.825-.175-13.127.689-.35 1.378-.689 2.29-1.145-.561-.339-.947-.573-1.332-.783-.818-.445-1.648-.877-2.454-1.333-1.028-.585-1.495-1.531-1.542-2.665-.07-2.046-.07-4.103-.105-6.149-.035-1.812-.047-3.635-.176-5.447-.14-1.999-.49-3.974-.56-5.973-.071-1.999.011-3.998.151-5.997.211-2.899.117-5.774-.607-8.603a204.552 204.552 0 0 0-2.244-7.925c-.806-2.677-.911-5.424-.958-8.171-.046-2.607.082-5.225.222-7.832.024-.958.304-1.905.491-2.969zm77.782-189.166c1.648-1.449 3.283-1.811 5.316-.876 2.033.935 3.751 2.267 5.352 3.764 1.624 1.531 3.213 3.132 4.603 4.862.888 1.099 1.543 2.443 2.057 3.776.748 1.952 1.308 3.986 1.904 5.997.701 2.396.748 4.886.853 7.352.047 1.029.07 2.057.047 3.086-.035 1.66-.935 2.583-2.839 2.817-.07-2.77.502-5.564-.339-8.369-2.185-.141-4.358-.339-6.532-.409-2.185-.071-4.37-.094-6.508-.69.421-1.239 1.274-1.847 2.629-1.73 2.641.222 5.282.514 7.922.76.631.058 1.262.011 1.916.011.281-1.356-.502-2.326-.759-3.577-1.11-.151-2.197-.444-3.295-.432-4.569.012-9.125.105-13.694.175-.316 0-.619.082-.9.129-.397 1.484-.128 5.798.456 7.306-.502 1.017-1.367 1.648-2.559 1.753-.549.047-1.122 0-1.671-.105-4.86-.889-9.733-1.742-14.687-1.976-.409-.023-.818-.14-1.297-.491.432-.14.853-.374 1.285-.385 3.868-.164 7.735-.211 11.591.362 1.321.199 2.653.304 4.195.479-.187-1.625-.374-3.097-.526-4.559a106.957 106.957 0 0 1-.315-3.904c-.047-.783.222-1.437.794-2.01.573-.585 1.063-1.251 1.636-1.952 1.414 1.356.058 3.132 1.052 4.547 2.29-1.812 4.989-.994 7.548-1.134 2.465-.129 4.942 0 7.407-.012.631 0 1.262-.093 2.15-.163-.245-.608-.362-1.029-.572-1.403-1.437-2.548-3.155-4.828-5.679-6.429-1.051-.667-1.881-1.672-2.886-2.432-1.834-1.391-3.692-2.711-5.655-4.138zm-43.476 20.55c.374-.409.724-.83 1.11-1.239.608-.655.806-.655 1.823-.035.023 4.851-.678 9.725-.316 14.728 1.251-.315 2.033-1.075 2.466-2.034.432-.958.736-2.034.829-3.074.222-2.513.433-5.026 1.122-7.458.351-1.262.83-1.613 2.36-1.718.024.526.094 1.064.059 1.59a413.617 413.617 0 0 1-.538 6.557c-.175 1.976-.864 3.636-2.454 4.992-1.402 1.204-2.558 2.712-4.101 4.383-.046.9-.152 2.244-.198 3.589-.047 1.215 0 2.419-.059 3.635-.093 1.847-.269 3.705-.374 5.552-.058 1.076-.046 2.139-.081 3.215-.106 4.29-.258 8.568-.316 12.858-.047 3.261.082 6.534.035 9.796-.012.911-.292 1.835-.584 2.7-.316.912-1.367 1.215-2.816.935-.035-.246-.117-.514-.093-.772.175-1.671.432-3.331.537-5.003.082-1.285-.023-2.583-.012-3.88.059-5.073.176-10.147.211-15.231.035-4.466-.094-8.943 0-13.408.081-4.15.35-8.299.572-12.437.152-2.736.351-5.471.538-8.206l.28-.035zm-9.079-1.847h2.734c.187.48.409.807.432 1.158.211 2.98.526 5.949.129 8.942-.117.923-.047 1.858-.094 2.793l-.701 13.408c-.011.175.047.362.082.549-.21.071-.386.117-.608.187.152.421.293.842.444 1.251-.151.176-.268.316-.315.363.526 2.174.456 4.313.432 6.44-.058 5.459-.233 10.918-.35 16.377a148.548 148.548 0 0 0-.024 5.587c.047 2.221-.35 2.724-2.558 2.946-.222.023-.456.023-.865.047-.631-20.012-.386-39.931 1.262-60.048z"/><path d="M240.431 210.001c1.063-1.215 2.115-1.321 3.272-1.18 3.049.362 6.111.678 9.16 1.028 2.302.269 4.557-.21 6.836-.362 1.857-.117 3.739-.281 5.585-.105 4.825.444 9.592-.106 14.371-.573 2.828-.269 5.609-.924 8.436-1.216 2.22-.222 4.464-.21 6.695-.187 1.998.024 3.996.222 5.994.328.258.011.526-.071 1.122-.152a690.604 690.604 0 0 0-4.23-2.899c-.362-1.438-.151-2.607.877-3.753.736.573 1.46 1.123 2.173 1.684 1.098.865 2.185 1.741 3.283 2.606 1.928 1.52 2.524 2.642.935 5.751-1.192 0-2.465.035-3.751-.011-1.764-.07-3.517-.211-5.269-.316-1.765-.105-3.541-.315-5.293-.257-2.746.093-5.48.362-8.226.573-2.232.163-4.452.397-6.683.479-3.494.129-6.988.199-10.481.199-2.232 0-4.464-.234-6.695-.234-1.437 0-2.886.21-4.323.316-2.524.163-5.025-.117-7.502-.597-1.332-.257-2.675-.374-4.007-.584-.69-.117-1.356-.316-2.279-.538zm48.081 45.226c1.648-1.181 3.307-1.555 5.141-1.309.526 1.064.467 2.092-.093 2.992-1.052 1.695-2.139 3.402-3.377 4.968-.549.69-1.449 1.251-2.29 1.496a62.014 62.014 0 0 1-6.52 1.532c-.935.163-1.94-.07-2.921-.105-1.344-.036-2.699-.071-4.043-.047-3.166.047-6.344.292-9.499.128-3.061-.152-6.123-.572-9.137-1.122-2.536-.467-4.931-1.566-6.976-3.121-1.145-.865-1.881-2.279-2.734-3.495-1.238-1.742-1.566-3.729-1.519-5.844.035-1.719-.07-3.449-.163-5.167-.036-.62.07-1.146.712-1.356.596-.199 1.192.023 1.437.573.421.923.76 1.893 1.005 2.887.398 1.531.596 3.121 1.052 4.641 1.122 3.682 3.166 6.581 6.905 8.112 2.174.888 4.394 1.403 6.719 1.788 3.891.655 7.793.784 11.696.877 1.437.035 2.886-.164 4.323-.14a24.85 24.85 0 0 1 3.61.315c2.045.316 3.798-.409 4.873-2.174 1.203-1.94 2.009-4.009 1.799-6.429zm18.333 173.479c-.526.643-.864 1.134-1.273 1.531-1.437 1.379-3.19 2.268-4.99 3.039-3.084 1.321-6.239 2.467-9.534 3.18-1.484.327-2.898.982-4.335 1.519-2.044.772-4.078 1.578-6.122 2.385-.479.187-.97.351-1.426.584-4.533 2.233-9.347 3.156-14.371 2.817-4.931-.327-9.862-.584-14.758-1.18-3.447-.421-6.94-.9-10.177-2.361-1.016-.456-2.044-.854-2.886-1.801 1.239-.783 2.454-.584 3.669-.257 1.075.292 2.127.737 3.213.959 2.279.479 4.569.912 6.871 1.262 2.442.374 4.884.748 7.337.947 3.985.316 7.992.538 11.988.69.994.035 2.057-.199 2.992-.573 3.984-1.59 7.898-3.343 11.894-4.886 1.858-.713 3.844-1.087 5.796-1.567 3.026-.748 5.807-1.998 8.272-3.915 2.057-1.602 4.499-2.186 6.999-2.619.129-.011.315.094.841.246zm25.285-37.581c-.175-.725-.397-1.239-.409-1.753-.117-4.711-.128-9.422-.315-14.121-.082-2.233-.479-4.442-.701-6.663a147.327 147.327 0 0 1-.386-4.582 250.793 250.793 0 0 1-.315-5.997c-.024-.736-.036-1.507.093-2.232.199-1.076.9-1.672 2.08-1.777.631 2.817 1.717 5.471 1.355 8.393-.035.245.187.514.211.783.292 2.911.619 5.833.829 8.755.07 1.017-.14 2.046-.187 3.063-.14 2.7-.245 5.4-.409 8.089-.117 1.999-.28 3.997-.491 5.985-.07.724-.373 1.414-1.355 2.057z"/><path d="M292.8 200.836c-.175 1.543-.864 2.443-1.741 2.946-1.192-.269-2.115-.585-3.061-.678-1.893-.176-3.809-.246-5.714-.316-3.575-.14-7.174-.14-10.738-.397-5.106-.374-10.188-.912-15.283-1.403-.817-.082-1.624-.304-2.5-.479.316-.772.853-.713 1.344-.69 1.577.082 3.154.211 4.732.304 2.687.164 5.386.304 8.085.479 1.064.07 2.139.141 3.19.304 1.811.281 3.599.211 5.422.129 3.715-.164 7.443-.105 11.17-.176 1.157-.023 2.313-.151 3.47-.187.491 0 .993.106 1.624.164zm9.359 123.813c-.257.467-.304.643-.42.771-1.332 1.426-2.594 2.923-4.02 4.244a44.683 44.683 0 0 1-4.638 3.763c-1.671 1.181-3.459 2.198-5.212 3.273-1.285.784-2.196.865-3.622.351.304-.958 1.122-1.438 1.858-1.952 2.944-2.022 5.573-4.348 7.618-7.329.479-.701 1.227-1.298 1.975-1.718 1.904-1.076 4.066-1.099 6.461-1.403zm-89.921-65.729v-9.526c1.262-.69 1.893-.655 3.669.245.07.129.198.281.233.456.327 2.046.935 4.033.888 6.149-.07 3.015-1.647 4.044-4.79 2.676zm-14.5 34.542c-1.718.374-3.272.129-4.709-.806-1.881-1.204-3.751-2.408-5.644-3.601-1.063-.666-2.161-1.286-3.236-1.928-.421-.258-.841-.538-1.332-.854.456-.561.865-.678 1.425-.514 1.508.456 3.085.771 4.534 1.356 2.325.935 4.592 2.022 6.847 3.109.619.292 1.157.783 1.659 1.251.549.491.876 1.099.456 1.987zm112.997 82.106c.643-.456 1.134-.807 1.66-1.181 2.815.257 5.631.526 8.447.783 2.758.257 5.515.514 8.261.76.023.105.047.21.082.315-.21.199-.374.515-.619.597-1.017.339-2.033.771-3.085.865-4.802.444-9.499-.082-14.045-1.707-.175-.07-.315-.199-.701-.432zm-52.905 47.959c-.362.433-.666.982-1.122 1.286-.572.374-1.25.678-1.916.772-4.942.689-9.885 1.332-14.886.947-1.098-.082-2.173-.328-3.435-.526.608-1.053 1.484-1.053 2.255-1.158.689-.093 1.391-.058 2.092-.046 5.047.07 10.036-.527 14.979-1.508a8.623 8.623 0 0 1 1.098-.152c.222-.012.444.035.678.058l.257.327zm2.068-41.379c-4.464 2.665-18.625 2.373-22.621-.385.409-.643 1.051-.491 1.612-.456 2.548.175 5.106.35 7.654.572 3.984.351 7.98.491 11.976.269.374-.023.748 0 1.379 0zm41.221-116.074c-.327 0-.747.035-1.156-.012-1.157-.105-1.66-.549-1.846-1.718a91.046 91.046 0 0 1-.538-4.01c-.117-1.11-.257-2.209-.818-3.214-.175-.316-.198-.702-.35-1.263.152-.14.338-.327.432-.421.374.024.549-.011.631.059 1.297.993 2.454 2.104 3.26 3.565.806 1.45 1.39 2.946 1.379 4.617 0 .877 0 1.789-.994 2.397zm-106.116 34.144c-.479 0-.97.07-1.437-.012-3.611-.643-6.836-2.186-9.687-4.43-2.348-1.859-4.72-3.635-7.477-4.839-.152-.07-.281-.199-.444-.316.35-.573.747-.409 1.226-.292 2.968.678 5.539 2.209 7.957 3.939a35.612 35.612 0 0 0 7.175 3.986c.724.304 1.448.631 2.149.994.257.128.444.397.666.608a4.593 4.593 0 0 0-.128.362zm-17.422 16.073c-2.804-.444-5.071-1.741-7.302-3.074-1.765-1.052-3.517-2.116-5.176-3.308-.853-.608-1.531-1.473-2.232-2.268-.211-.233-.211-.643-.094-1.133.246.151.514.268.748.444 1.402 1.11 2.98 1.858 4.592 2.606 2.816 1.321 5.55 2.829 8.296 4.314.853.479 1.355 1.227 1.168 2.419zm149.057 68.16c-2.559 2.221-12.946 2.279-16.042.21.642-.923 1.577-1.274 2.617-1.215 3.669.187 7.338.42 11.007.666.759.047 1.519.21 2.418.339zm-87.889-24.945c2.664-1.789 17.55-2.291 20.798-.62-1.122.258-1.986.561-2.874.62a85.527 85.527 0 0 1-5.726.175c-3.82 0-7.641-.058-11.462-.105-.21 0-.421-.047-.736-.07zm-19.653.433c-1.402.841-2.781.783-4.171.642-1.94-.187-3.891-.339-5.831-.502-1.156-.105-2.325-.152-3.47-.316-.865-.128-1.741-.315-2.419-1.157.269-.316.515-.62.772-.935 2.862.958 5.748.923 8.623.9 1.121-.012 2.231 0 3.353.047 1.11.035 2.185.304 3.143 1.321zm-.151-8.265c-.421.374-.842.748-1.391 1.239-3.961 0-7.992.023-12.023-.012-1.367-.012-1.367-.082-2.173-.748.631-.772 1.495-.62 2.302-.631 2.465-.035 4.93-.035 7.384-.094 1.484-.035 2.968-.14 4.452-.187.432-.012.876.07 1.309.105.058.117.105.222.14.328zm93.847-7.142c.455-.116.923-.327 1.378-.327 3.12.059 6.228.164 9.348.246 1.215.035 2.43.023 3.634.105.572.047 1.133.269 2.033.491-.526.386-.736.678-.97.689-1.613.129-3.248.293-4.861.246-2.605-.082-5.211-.292-7.816-.503-.912-.07-1.812-.304-2.711-.467a41.273 41.273 0 0 1-.035-.48zm14.664 7.259c-3.447 1.275-13.998 1.497-16.346.363.408-.304.747-.561.946-.713 2.033 0 3.879-.012 5.725 0 2.968.035 5.936.082 8.904.14.175.012.35.094.771.21zM218.22 379.763c-5.959.912-10.002.819-11.509-.187.49-.222.876-.561 1.25-.549 2.652.058 5.305.152 7.957.304.771.035 1.531.28 2.302.432zm116.223-82.513c-2.208 2.349-4.592 4.032-7.279 5.248 1.53-1.718 5.281-4.477 7.279-5.248z"/></g><path d="M254.246 126.879c3.096-.28 5.982-.947 8.985.059-.561 1.823-1.39 3.331-2.337 4.745-1.764 2.631-3.587 5.226-5.409 7.809-.666.947-1.321 1.917-2.127 2.723-.9.901-2.091 1.38-3.33 1.555-1.975-1.005-3.622-2.384-5.071-3.963a939.944 939.944 0 0 1-8.553-9.433c-.42-.467-.713-1.052-1.145-1.695 2.501-1.683 5.27-1.075 7.957-1.589-.105-1.239-.21-2.478-.304-3.706-.07-.888-.163-1.765-.187-2.653-.093-3.776-.163-7.563-.268-11.339-.024-.783-.117-1.59-.328-2.349-.502-1.836-.981-3.694-1.67-5.471-.923-2.385-2.676-4.115-4.896-5.365-.514-.292-.946-.713-1.391-1.1-.572-.502-1.18-.876-1.986-.9-3.12-.08-5.947.796-8.202 2.935-.9.853-1.437 2.162-1.987 3.331-1.215 2.607-1.764 5.424-2.126 8.241-.316 2.443-.316 4.921-.374 7.399-.105 4.057-.152 8.113-.21 12.181-.024 1.718 0 3.436 0 5.26-1.332 1.028-2.559 2.454-4.581 2.408a47.095 47.095 0 0 1-1.799-.07c-.374-.024-.736-.094-1.11-.094-1.577-.023-3.143 0-4.72-.07-.514-.023-1.005-.304-1.379-.421-.9-2.992-.947-5.833-.841-8.673.023-.748.058-1.496 0-2.233-.269-3.296.268-6.511 1.016-9.702.596-2.548 1.262-5.073 1.811-7.621a73.27 73.27 0 0 0 .97-5.518c.432-3.062 1.951-5.564 3.774-7.995 3.424-4.57 8.121-7.224 13.344-9 1.717-.585 3.668-.679 5.514-.69 3.272-.024 6.497.479 9.605 1.554.35.117.713.234 1.04.421 3.318 1.929 6.496 4.045 8.775 7.236.537.748.899 1.636 1.262 2.49 1.191 2.735 2.582 5.412 2.944 8.427.14 1.193.21 2.408.222 3.612.012 2.198-.128 4.396-.047 6.593.141 3.752-.479 7.446-.724 11.175l-.117 1.496zm43.327-13.594c-.923-1.157-1.683-2.186-2.536-3.133-3.47-3.834-6.975-7.656-10.48-11.467-2.863-3.133-5.714-6.277-8.623-9.375-1.145-1.215-2.477-2.267-3.646-3.471a1845.446 1845.446 0 0 1-13.226-13.864 973.986 973.986 0 0 1-11.626-12.507c-2.29-2.513-4.464-5.132-6.684-7.715-.21-.246-.362-.526-.596-.889.655-1.215 1.882-1.39 2.992-1.823.432.28.817.526 1.238.783 3.459.246 6.929.386 10.434.175 1.788-.105 3.611.304 5.41.48 1.332.128 2.664.28 4.008.35 1.297.07 2.605.106 3.902.082 1.11-.023 1.975.386 2.699 1.204 3.085 3.495 6.205 6.967 9.266 10.474 3.014 3.436 5.924 6.967 8.985 10.356 3.061 3.39 6.24 6.687 9.406 9.971 1.017 1.052 1.554 2.186 1.344 3.647-.105.737-.164 1.485-.292 2.221-.526 2.993.116 5.962.128 8.943.012 1.636.094 3.261.094 4.897.011 1.438.011 2.888-.082 4.325a43.508 43.508 0 0 1-.433 3.893c-.151 1.122-.782 1.964-1.682 2.443zm-57.745 68.849c.468-2.303 1.823-4.021 3.26-5.693 2.349-2.723 4.686-5.447 7.093-8.112 5.398-5.997 10.761-12.016 16.276-17.896 4.206-4.489 8.541-8.861 12.946-13.174 2.395-2.349 5.036-4.43 7.56-6.639 1.788-1.567 3.564-3.145 5.375-4.676 1.145-.959 2.36-1.824 3.528-2.747 1.145-.912 2.279-.853 3.506-.117.058.327.151.643.163.97.105 2.701.152 5.412.316 8.113.187 3.167.444 6.323.759 9.48.129 1.262-.164 2.291-1.016 3.202-3.155 3.425-6.322 6.85-9.441 10.322-3.342 3.717-7.046 7.06-10.82 10.322-1.729 1.484-3.307 3.144-4.978 4.699-2.617 2.454-5.257 4.886-7.875 7.34a83.137 83.137 0 0 0-2.897 2.829c-1.192 1.228-2.653 1.882-4.335 2.022-2.699.234-5.387.152-8.039-.479-2.477-.584-5.001-.502-7.513-.292-.631.047-1.25.362-1.87.538-.666.163-1.332.42-1.998-.012zm-10.293-1.975c-.619 1.239-1.098 2.186-1.647 3.308-.725 0-1.449.035-2.185-.012-2.921-.164-5.854-.397-8.775-.526-1.169-.047-2.127-.397-3.073-1.099-1.823-1.367-3.844-2.49-5.597-3.939-2.629-2.163-5.094-4.512-7.63-6.78-3.552-3.156-7.151-6.277-10.679-9.456-1.554-1.403-2.991-2.934-4.464-4.431-1.6-1.624-3.225-3.237-4.744-4.944-1.962-2.186-3.797-4.489-5.748-6.675-1.274-1.426-2.547-2.875-4.02-4.079-1.168-.947-1.787-2.022-1.799-3.437-.047-4.068-.152-8.135.012-12.192.082-2.256.934-4.29 3.505-4.979 1.063.21 1.788.982 2.5 1.695 4.195 4.173 8.366 8.369 12.538 12.566 2.722 2.747 5.445 5.494 8.155 8.252 2.384 2.432 4.732 4.898 7.139 7.306 5.796 5.821 11.591 11.642 17.433 17.405 2.185 2.163 4.499 4.197 6.357 6.675.49.654.782 1.461 1.168 2.209.175.327.351.643.514.97.339.748.713 1.485 1.04 2.163zm-63.177-73.023c-.012-.233-.105-.537-.035-.783.993-3.097.888-6.359 1.308-9.526.444-3.308 1.332-6.418 3.05-9.223 1.075-1.777 2.535-3.343 3.961-4.886 3.131-3.39 6.228-6.827 9.569-10.006 3.669-3.507 7.595-6.745 11.404-10.112 2.933-2.595 5.819-5.248 8.798-7.796 1.66-1.426 3.436-2.712 5.188-4.033.842-.631 1.835-.573 2.816-.514 4.604.28 9.207.327 13.799-.328a9.642 9.642 0 0 1 2.092-.07c1.215.117 2.231.62 2.734 1.917-.199.257-.351.55-.584.76-2.524 2.28-5.036 4.582-7.595 6.815-5.947 5.166-11.93 10.298-17.9 15.441-3.739 3.227-7.56 6.383-11.206 9.702-2.301 2.104-4.358 4.477-6.566 6.687-2.699 2.7-5.468 5.342-8.179 8.042-1.391 1.379-2.699 2.84-4.101 4.208-1.169 1.134-2.396 2.221-3.622 3.285-1.601 1.367-2.945 1.472-4.931.42zm85.164 132.147c.386-.21.853-.468 1.461-.795.607.561 1.285 1.005 1.717 1.625 1.683 2.385 3.833 4.337 6.041 6.172 1.274 1.052 3.003 1.648 4.615 2.162 1.543.48 3.19.573 4.802.854.398.07.772.187 1.11.269.141.794-.35.923-.771 1.098-1.472.62-2.991.526-4.533.293-2.676-.41-5.176-1.497-7.303-3.005-2.991-2.115-5.702-4.664-7.127-8.229-.047-.07-.012-.175-.012-.444zm-15.457 21.192c.9-.082 1.928.374 2.886 1.204-.292.853-.97 1.157-1.718 1.216-.736.058-1.519.081-2.22-.117-1.308-.351-2.594-.316-3.867 0-2.91.713-5.889.912-8.857 1.099-.199.011-.409-.094-.888-.223 1.834-1.157 3.704-.981 5.422-1.426 1.694-.444 3.423-.783 5.234-1.461-1.016-.608-1.986-1.332-3.061-1.8-1.063-.456-2.244-.654-3.365-1.145 1.717-1.041 3.599-.924 5.269-.304 1.695.619 3.202 1.8 5.165 2.957zm25.88-31.479c.631-1.344 1.799-1.59 3.178-1.648.164.421.316.83.362.97l4.931 2.677c.503-.713 1.005-1.379 1.449-2.081.689-1.098 3.342-2.396 4.604-2.197.163.023.315.175.432.245-.175.702-.327 1.333-.561 2.268-.911.9-2.395 1.368-3.821 1.929-.946.374-1.963.572-2.944.876-1.332.41-2.512.082-3.517-.783-.748-.631-1.507-1.028-2.512-1.052-.666.012-1.227-.339-1.601-1.204zm-37.495 45.751c.339-.748.97-.818 1.648-.724 2.71.374 5.433.748 8.132 1.18.619.105 1.215.444 1.799.737.795.385 1.566.818 2.337 1.239.666.374 1.227.841 1.344 1.636-1.215 1.438-2.851 1.531-4.055.269-.537-.561-3.797-2.291-4.603-2.455-1.601-.327-3.202-.631-4.779-.993-.666-.141-1.414-.176-1.823-.889zm49.728-49.023c-.444.269-.83.514-1.285.795-.339-.199-.795-.304-.935-.561-.444-.854-1.005-1.754-1.122-2.677-.327-2.537-.467-5.097-.619-7.645-.035-.608.199-1.239.339-2.01.864.046 1.577.093 2.348.14.351 1.403.129 2.712.176 3.998.058 1.344.128 2.688.303 4.021.187 1.262.97 2.419.795 3.939zm-9.172-12.496c-.607 1.25-1.694 1.601-2.839 1.94-.701-.199-1.414-.409-2.045-.584-.853.619-1.624 1.18-2.278 1.648-1.157-.129-1.753-.631-2.08-1.59.164-.316.339-.666.654-1.297-1.308.362-2.395.666-3.528.97.49-1.064 1.542-1.695 3.867-2.35 1.706-.467 6.777.257 8.249 1.263zm22.072.21c-.818 1.005-.818 1.005-2.442 1.414-.456-.245-1.017-.549-1.414-.771-.935.503-1.729 1.064-2.617 1.403-1.344.514-1.905.035-1.835-1.403.012-.14 0-.269 0-.608-.911.047-1.787.105-3.002.175.49-.385.724-.678 1.028-.794a16.676 16.676 0 0 1 6.893-1.31c.83.012 1.683.456 2.454.854.386.187.631.689.935 1.04zm-59.449 57.137c1.589-1.777 11.252-1.648 13.437.748-.14.152-.246.386-.421.456-1.601.643-3.26.9-4.896.257-1.986-.783-4.042-.994-6.134-1.029-.689-.011-1.414.105-1.986-.432zm52.438-34.752c-1.005 1.063-2.313 1.426-3.634 1.811-1.998.573-3.984 0-5.97.047-1.671.035-3.33-.012-5.001.023-1.601.036-3.108-.292-4.872-.9 1.133-.981 2.313-1.052 3.47-1.145.222-.012.467.035.689.117 1.472.479 2.956.724 4.522.689 1.799-.035 3.61.223 5.421.223.701 0 1.426-.269 2.104-.527 1.051-.374 2.079-.759 3.271-.338zm-42.752 47.271c-2.033 1.555-4.172 2.268-6.462 2.502-1.005.105-2.033.058-3.038-.07-.549-.071-1.04-.491-1.612-.784.175-.327.222-.549.362-.619 1.729-.97 3.459-1.905 5.503-.865.947.491 1.893.315 2.851.035.69-.222 1.367-.596 2.396-.199zm40.158-58.808c.444-.281.888-.561 1.285-.818 1.916 1.332 4.288 6.055 3.984 8.089-.42-.141-.981-.164-1.156-.433-1.391-2.034-2.699-4.103-4.031-6.172-.059-.105-.035-.269-.082-.666zm-15.563 1.859c-.164.409-.269.9-.514 1.297-.631 1.029-1.332 2.022-1.975 3.039-.491.76-1.169 1.146-2.045 1.239-.642-.584-.397-1.25-.198-1.835.56-1.648 1.694-2.864 3.084-3.857.491-.374.993-.421 1.648.117zm11.229 13.734c-.059.888-.713 1.099-1.25 1.204-1.718.339-3.412 1.064-5.293.631.187-1.145 1.028-1.332 1.741-1.555 1.554-.479 3.143-1.122 4.802-.28zm-7.408-24.149c-.269.327-.468.759-.806.958-1.192.701-2.256 1.718-3.763 1.8.982-1.683 2.477-2.571 4.23-3.109.105.117.222.234.339.351zm17.772 29.982c-.946 1.683-2.349 2.279-3.973 1.777.596-1.321 1.835-1.637 3.003-1.999.257-.094.608.129.97.222zm-5.983-30.427c-.409 1.426-.946 1.718-2.337 1.379.246-1.181.982-1.637 2.337-1.379z" fill="#1E1919"/></svg>